<svg xmlns="http://www.w3.org/2000/svg" fill="none" viewBox="0 0 162 36">
  <g clip-path="url(#BkFh_UJIha)">
    <path d="M62.221 25.39c1.274 0 2.366-.304 3.276-.913a4.98 4.98 0 001.94-2.444V25.2h3.821V10.076h-3.822v3.14a4.908 4.908 0 00-1.939-2.43c-.91-.601-2.002-.901-3.276-.901s-2.42.31-3.44.928c-1.019.619-1.815 1.515-2.388 2.689-.574 1.174-.86 2.553-.86 4.136 0 1.583.286 2.962.86 4.136.573 1.174 1.37 2.07 2.39 2.689 1.018.619 2.164.928 3.44.928h-.002zm1.202-3.384c-1.202 0-2.166-.387-2.894-1.16-.728-.774-1.092-1.843-1.092-3.208 0-1.365.364-2.44 1.092-3.222.728-.782 1.692-1.173 2.893-1.173 1.165 0 2.125.395 2.88 1.187.756.792 1.134 1.86 1.134 3.208 0 1.328-.378 2.389-1.133 3.18-.756.792-1.716 1.188-2.88 1.188zM84.24 25.2v-3.221h-7.426l7.153-8.873v-3.03H72.774v3.194h6.797l-6.96 8.872V25.2h11.63zm3.29-17.39c.71 0 1.284-.196 1.72-.587.437-.391.656-.887.656-1.488 0-.62-.219-1.124-.656-1.515-.436-.391-1.01-.587-1.72-.587s-1.283.196-1.72.587c-.436.39-.655.896-.655 1.515 0 .6.22 1.097.656 1.488.436.39 1.01.587 1.72.587zm1.912 17.39V10.076h-3.85V25.2h3.85zm6.293 0v-8.026c0-1.292.32-2.275.956-2.95.637-.672 1.492-1.01 2.566-1.01 1.037 0 1.852.315 2.443.943.592.628.888 1.524.888 2.69V25.2h3.822v-8.026c0-1.292.318-2.275.955-2.95.637-.672 1.492-1.01 2.566-1.01 1.038 0 1.852.315 2.444.943.591.628.887 1.524.887 2.69V25.2h3.822v-8.79c0-2.094-.533-3.71-1.597-4.846-1.065-1.138-2.516-1.707-4.355-1.707a5.716 5.716 0 00-5.268 3.385c-.456-1.091-1.133-1.93-2.034-2.511-.901-.582-1.961-.874-3.18-.874-1.147 0-2.153.269-3.017.806-.865.537-1.497 1.296-1.898 2.28v-2.867h-3.85V25.2h3.85zm29.144.19c1.201 0 2.261-.286 3.18-.86a4.813 4.813 0 001.98-2.388V25.2h3.849V10.076h-3.85v8.026c0 1.329-.327 2.348-.982 3.058s-1.538 1.064-2.648 1.064c-1.056 0-1.893-.332-2.512-.996-.619-.664-.928-1.597-.928-2.798v-8.354h-3.822v8.79c0 2.057.519 3.659 1.556 4.805 1.038 1.147 2.43 1.72 4.177 1.72zm19.534-.19v-3.303h-1.501c-.692 0-1.183-.146-1.475-.437-.29-.291-.436-.8-.436-1.53v-6.606h3.385v-3.248H141v-3.74h-3.85v3.74h-2.102v3.248h2.102v6.553c0 1.91.45 3.276 1.352 4.095.9.819 2.197 1.228 3.89 1.228h2.021zm5.557-20.202h-3.85V25.2h3.85v-8.026c0-1.33.327-2.348.983-3.058.655-.71 1.528-1.064 2.62-1.064 1.074 0 1.92.332 2.54.996.618.664.928 1.597.928 2.798V25.2h3.822v-8.79c0-2.075-.52-3.686-1.557-4.833-1.037-1.146-2.43-1.72-4.177-1.72-1.2 0-2.26.287-3.18.86a4.825 4.825 0 00-1.98 2.39v-8.11h.001z" fill="#fff"/>
    <path fill-rule="evenodd" clip-rule="evenodd" d="M25.15 24.15v10.5L1 22.575l10.5-5.25L1 12.075 25.15 0v10.5L11.5 17.325l13.65 6.825z" fill="url(#BkFh_UJIhb)"/>
    <path fill-rule="evenodd" clip-rule="evenodd" d="M25.15 10.5V0L49.3 12.075l-10.5 5.25 10.5 5.25L25.15 34.65v-10.5l13.65-6.825L25.15 10.5z" fill="url(#BkFh_UJIhc)"/>
  </g>
  <defs>
    <linearGradient id="BkFh_UJIhb" x1="25.15" y1="17.325" x2="1" y2="17.325" gradientUnits="userSpaceOnUse">
      <stop stop-color="#1E8485"/>
      <stop offset="1" stop-color="#1E8485"/>
    </linearGradient>
    <linearGradient id="BkFh_UJIhc" x1="49.3" y1="17.325" x2="27.892" y2="17.325" gradientUnits="userSpaceOnUse">
      <stop stop-color="#1E8485"/>
      <stop offset="1" stop-color="#1E8485"/>
    </linearGradient>
    <clipPath id="BkFh_UJIha">
      <path fill="#fff" d="M0 0h162v36H0z"/>
    </clipPath>
  </defs>
</svg>
