<svg xmlns="http://www.w3.org/2000/svg" viewBox="0 0 93.12 36">
  <g data-name="Layer 2">
    <path d="M18 0A18 18 0 110 18 18 18 0 0118 0zm31.36 21.94h6.36V24H46.8V10h2.56zm9.06.72a4.88 4.88 0 01-1.64-3.72 5 5 0 011.64-3.74 5.57 5.57 0 017.7 0 5.09 5.09 0 01.26 7.18l-.26.26a5.56 5.56 0 01-7.7 0zm1.68-6a3.39 3.39 0 000 4.52 3 3 0 004.24.08l.08-.08a3.39 3.39 0 000-4.52 3 3 0 00-4.24-.08zm10 10.68l1-1.92a5.28 5.28 0 003.3 1.22 3.6 3.6 0 002.32-.72 2.73 2.73 0 00.9-2.26V22.5a3.61 3.61 0 01-1.45 1.26 4.35 4.35 0 01-2 .46 4.57 4.57 0 01-3.58-1.54 5.48 5.48 0 01-1.39-3.78 5.42 5.42 0 011.36-3.74 4.64 4.64 0 013.62-1.5 4 4 0 013.44 1.72v-1.5h2.46v9a6.13 6.13 0 01-1.43 4.46 5.27 5.27 0 01-4 1.44 7.09 7.09 0 01-4.53-1.42zm1.54-8.44a3.4 3.4 0 00.82 2.3 2.72 2.72 0 002.17.94 3.13 3.13 0 001.21-.22 2.89 2.89 0 001-.62 3.08 3.08 0 00.63-1 3.62 3.62 0 00.21-1.3 4 4 0 00-.23-1.33 3.3 3.3 0 00-.63-1.05 2.74 2.74 0 00-1-.68 3.35 3.35 0 00-1.25-.24 2.92 2.92 0 00-1.2.24 2.58 2.58 0 00-.93.67 3 3 0 00-.59 1 3.89 3.89 0 00-.19 1.31zm12.16 3.76a4.88 4.88 0 01-1.64-3.72 5 5 0 011.64-3.74 5.57 5.57 0 017.7 0 5.09 5.09 0 01.26 7.18 3.19 3.19 0 01-.26.26 5.56 5.56 0 01-7.7 0zm1.68-6a3.39 3.39 0 000 4.52 3 3 0 004.24.08l.08-.08a3.39 3.39 0 000-4.52 3 3 0 00-4.24-.08z" fill="#a1a8c2" opacity=".4" style="isolation:isolate" data-name="Layer 1"/>
  </g>
</svg>
